<?xml version="1.0" standalone="no"?>
<!DOCTYPE svg PUBLIC "-//W3C//DTD SVG 20010904//EN"
 "http://www.w3.org/TR/2001/REC-SVG-20010904/DTD/svg10.dtd">
<svg version="1.0" xmlns="http://www.w3.org/2000/svg"
 width="1280.000000pt" height="640.000000pt" viewBox="0 0 1280.000000 640.000000"
 preserveAspectRatio="xMidYMid meet">
<metadata>
Created by potrace 1.15, written by Peter Selinger 2001-2017
</metadata>
<g transform="translate(0.000000,640.000000) scale(0.100000,-0.100000)"
fill="#ffffff" stroke="none">
<path d="M3922 4619 c-826 -26 -1747 -153 -2851 -393 l-205 -44 -55 43 c-104
81 -245 125 -402 125 -168 0 -277 -38 -356 -123 l-41 -44 -7 -689 c-4 -379 -5
-882 -2 -1118 l6 -429 28 -24 c52 -43 138 -91 203 -114 93 -33 267 -33 360 0
76 26 183 87 225 129 30 29 85 46 524 158 886 227 1724 363 2486 405 236 13
845 7 1045 -10 559 -49 833 -91 1930 -295 1008 -188 1525 -258 2290 -311 762
-52 1820 -44 2675 20 269 20 282 20 319 -9 91 -69 207 -108 322 -107 125 0
220 34 320 115 l51 41 6 164 c9 212 9 995 0 1600 l-6 474 -32 41 c-21 28 -55
53 -107 80 -72 37 -84 40 -181 44 -123 5 -225 -13 -314 -58 -73 -37 -143 -95
-143 -120 0 -25 -7 -26 -315 -44 -1411 -87 -2455 -71 -3590 55 -438 48 -610
73 -1600 229 -927 146 -1315 189 -1920 210 -311 11 -311 11 -663 -1z m1098
-163 c292 -25 476 -45 755 -82 272 -36 295 -40 1013 -153 1045 -166 1555 -224
2407 -273 143 -9 475 -13 950 -13 736 1 1027 10 1590 50 110 8 206 15 213 15
10 0 12 -99 10 -477 l-3 -477 -45 -8 c-25 -4 -57 -9 -71 -12 l-26 -5 -7 262
c-3 144 -9 330 -12 413 l-7 150 -66 -9 c-36 -4 -68 -10 -70 -13 -2 -2 5 -36
17 -76 47 -162 84 -398 98 -625 5 -82 4 -113 -5 -113 -22 0 -506 -71 -516 -75
-13 -7 427 4 488 12 l47 6 0 -37 c0 -20 -1 -36 -2 -36 -2 -1 -106 -16 -233
-35 l-230 -34 232 2 c266 2 243 12 243 -100 0 -73 18 -295 30 -373 5 -34 7 49
3 211 l-5 266 67 8 c36 4 69 5 71 2 5 -5 26 -758 22 -763 -3 -2 -415 -30 -658
-44 -91 -5 -369 -15 -618 -22 -930 -25 -1861 26 -2737 148 -349 48 -731 115
-1470 254 -568 107 -837 150 -1205 194 -664 80 -1398 78 -2110 -5 -602 -70
-1338 -214 -2038 -398 -106 -28 -197 -52 -202 -54 -5 -1 -10 191 -11 443 l-2
444 33 9 c18 4 34 6 37 4 2 -3 9 -159 14 -348 5 -189 11 -344 12 -346 7 -6
127 33 127 42 0 5 -9 42 -20 80 -36 125 -89 461 -90 566 0 11 17 19 58 28 60
13 556 177 582 192 40 24 -181 -19 -389 -76 -90 -25 -185 -48 -212 -51 -45 -6
-49 -5 -49 15 0 14 8 22 28 27 73 16 194 50 367 104 105 32 213 66 240 74 l50
15 -80 -5 c-112 -8 -191 -21 -333 -55 -140 -33 -259 -55 -266 -48 -3 2 -10 98
-16 212 -6 115 -18 256 -25 315 l-14 107 4 -175 c3 -96 6 -240 7 -320 l3 -145
-36 -3 -37 -3 -7 323 c-4 178 -8 359 -9 402 l-1 79 130 29 c1061 234 1862 349
2800 402 165 9 1013 -4 1185 -18z m-4426 -250 c39 -12 90 -35 114 -49 l42 -27
0 -245 c0 -135 -3 -245 -6 -245 -4 0 -38 11 -76 25 -47 17 -101 27 -162 31
l-91 5 102 -35 c106 -37 188 -74 180 -82 -2 -2 -17 0 -33 6 -26 10 -205 31
-212 25 -1 -1 46 -19 105 -39 59 -21 127 -49 151 -62 l42 -25 0 -185 c0 -174
-1 -186 -17 -179 -70 31 -138 47 -212 51 l-86 5 105 -38 c114 -41 198 -86 207
-110 7 -17 -15 -965 -22 -972 -2 -2 -16 4 -30 13 -44 29 -172 56 -262 56 -88
0 -207 -20 -267 -45 -20 -8 -38 -15 -41 -15 -3 0 -5 465 -3 1033 2 851 5 1037
17 1050 20 25 113 67 168 77 71 13 207 2 287 -24z m12001 2 c91 -47 82 40 90
-883 4 -452 4 -918 0 -1037 l-7 -215 -71 24 c-135 47 -339 39 -434 -17 l-32
-18 -6 61 c-3 34 -10 253 -14 487 -7 359 -6 428 6 441 21 24 117 73 206 104
43 15 76 29 75 30 -9 9 -185 -18 -230 -35 -29 -11 -56 -20 -60 -20 -5 0 -8 81
-8 180 l0 180 42 26 c23 15 84 42 137 62 53 19 98 37 101 39 9 10 -145 -10
-190 -23 -24 -7 -46 -11 -48 -9 -6 5 104 58 188 90 l65 25 -75 -4 c-64 -3
-125 -19 -201 -50 -14 -6 -15 19 -11 241 2 141 9 253 14 260 15 19 114 65 171
79 31 8 90 12 147 10 78 -2 104 -7 145 -28z m-11595 -1073 c0 -22 -4 -25 -40
-25 -33 0 -40 3 -40 19 0 15 8 21 38 24 20 2 38 4 40 5 1 1 2 -9 2 -23z
m10960 -199 c0 -26 -10 -30 -95 -41 l-50 -7 -2 31 c-2 29 -1 30 45 34 106 8
102 9 102 -17z m-11415 -918 c76 -15 51 -26 -60 -27 l-80 -1 30 20 c35 23 35
23 110 8z m11860 -8 l30 -20 -75 0 c-41 0 -86 3 -100 7 -24 7 -23 8 15 19 59
18 96 16 130 -6z m-12140 -19 c-3 -10 -1 -30 4 -45 6 -14 8 -26 5 -26 -11 0
-106 52 -102 56 5 5 80 32 91 33 5 1 6 -7 2 -18z m12341 4 c41 -17 38 -28 -16
-55 -49 -25 -53 -25 -39 1 6 12 9 32 6 45 -5 28 1 29 49 9z"/>
<path d="M3855 4299 c-721 -28 -1481 -132 -2108 -288 -88 -22 -160 -41 -162
-43 -8 -8 28 -168 38 -168 6 0 78 22 161 49 817 267 1952 429 2859 407 151 -3
267 -2 267 2 0 31 -663 57 -1055 41z"/>
<path d="M11230 2274 c-862 -100 -2099 -133 -2754 -73 -84 7 -122 7 -129 0 -6
-6 -8 -11 -4 -11 4 0 80 -7 169 -15 827 -75 1988 -100 2751 -59 l127 7 0 84
c0 96 20 88 -160 67z"/>
<path d="M245 4151 c-55 -23 -51 31 -64 -976 -6 -511 -14 -949 -16 -972 -5
-47 2 -51 49 -33 l26 10 1 942 c1 520 5 927 9 908 11 -47 30 -956 30 -1451 l0
-398 38 6 c20 3 39 7 41 9 3 2 -5 308 -29 1079 -5 165 -12 422 -15 570 -4 149
-8 280 -11 293 -5 23 -23 27 -59 13z"/>
<path d="M12556 4138 c-3 -24 -15 -225 -26 -448 -33 -630 -69 -1297 -76 -1387
l-6 -83 30 0 30 0 6 83 c4 45 13 285 21 532 14 417 43 1157 47 1215 1 14 4
-27 8 -90 7 -119 -4 -1204 -16 -1551 l-6 -195 42 -17 43 -16 -7 167 c-3 92 -9
531 -12 976 l-7 810 -23 23 c-33 33 -42 29 -48 -19z"/>
</g>
</svg>
