<svg width="409" height="561" viewBox="0 0 409 561" fill="none" xmlns="http://www.w3.org/2000/svg">
<path d="M204.5 76.5V0L102.5 102L204.5 204V127.5C288.65 127.5 357.5 196.35 357.5 280.5C357.5 306 349.85 331.5 339.65 351.9L377.9 390.15C395.75 357 408.5 321.3 408.5 280.5C408.5 168.3 316.7 76.5 204.5 76.5ZM204.5 433.5C120.35 433.5 51.5 364.65 51.5 280.5C51.5 255 59.15 229.5 69.35 209.1L31.1 170.85C13.25 204 0.5 239.7 0.5 280.5C0.5 392.7 92.3 484.5 204.5 484.5V561L306.5 459L204.5 357V433.5Z" fill="white" stroke="white"/>
</svg>
